<svg viewBox="0 0 932 195" xmlns:xlink="http://www.w3.org/1999/xlink" xmlns="http://www.w3.org/2000/svg" width="932" height="195" fill="none" id="svg-2125182910_2600"><g clip-path="url(#svg-2125182910_2600_a)" fill="#FFFFFF"><path d="M111.35 18.65H20.07v67.6h82.64v17.95H20.07v70.77h91.62v18.22H0V.43h111.35v18.22Zm236.1 12.01c-7.92-9.1-17.73-16.38-29.44-21.86C306.3 3.33 292.61.59 276.95.59c-15.66 0-29.15 2.74-40.94 8.21-11.79 5.48-21.65 12.76-29.57 21.86-7.92 9.1-13.86 19.25-17.81 30.45-3.96 11.21-5.94 22.45-5.94 33.74v4.55c0 10.61 1.93 21.48 5.81 32.6 3.87 11.12 9.69 21.4 17.44 30.83 7.75 9.44 17.52 17.02 29.31 22.74 11.79 5.73 25.69 8.59 41.69 8.59 16 0 29.9-2.87 41.69-8.59 11.79-5.73 21.61-13.31 29.44-22.74 7.83-9.43 13.65-19.67 17.44-30.7 3.79-11.03 5.69-21.86 5.69-32.47v-4.8c0-11.28-1.98-22.53-5.94-33.74-3.96-11.2-9.9-21.35-17.82-30.45l.01-.01Zm-.76 96.28c-3.37 9.44-8.26 17.9-14.66 25.4s-14.24 13.39-23.5 17.69c-9.27 4.3-19.8 6.44-31.59 6.44s-22.11-2.15-31.46-6.44c-9.35-4.3-17.23-10.19-23.63-17.69-6.4-7.49-11.29-15.96-14.66-25.4-3.37-9.43-5.05-19.29-5.05-29.57 0-10.28 1.73-20.89 5.18-30.32 3.45-9.43 8.42-17.81 14.91-25.14 6.48-7.33 14.36-13.1 23.63-17.31 9.26-4.21 19.62-6.32 31.08-6.32 11.46 0 22.07 2.11 31.33 6.32 9.26 4.21 17.14 9.98 23.63 17.31 6.48 7.33 11.41 15.71 14.78 25.14 3.37 9.44 5.05 19.54 5.05 30.32 0 10.78-1.69 20.13-5.05 29.57h.01ZM584.53.43v174.54h-3.17L475.74.43H442.2v192.76h19.01V18.65h3.17L570 193.19h33.8V.43h-19.27Zm167.18 194.24c-4.35 0-8.01-.7-10.99-2.09-2.98-1.39-5.24-3.33-6.77-5.81-1.53-2.48-2.3-5.28-2.3-8.4h5.39c0 1.99.48 3.84 1.45 5.57.97 1.73 2.53 3.12 4.68 4.18 2.15 1.06 5 1.6 8.54 1.6 3.26 0 5.97-.47 8.12-1.42 2.15-.94 3.76-2.22 4.82-3.83 1.06-1.61 1.6-3.4 1.6-5.39 0-2.5-.98-4.6-2.94-6.28-1.96-1.68-4.91-2.68-8.83-3.01l-5.96-.57c-4.44-.38-7.98-1.76-10.6-4.15-2.62-2.39-3.94-5.54-3.94-9.47 0-2.98.71-5.6 2.13-7.87 1.42-2.27 3.44-4.06 6.06-5.39 2.62-1.32 5.78-1.99 9.47-1.99 3.69 0 6.94.67 9.61 2.02 2.67 1.35 4.71 3.2 6.13 5.57 1.42 2.36 2.13 5.11 2.13 8.23h-5.39c0-1.89-.42-3.66-1.28-5.32-.85-1.65-2.2-2.99-4.04-4.01-1.84-1.02-4.23-1.52-7.16-1.52-2.93 0-5.09.47-6.91 1.42-1.82.95-3.17 2.2-4.04 3.76-.87 1.56-1.31 3.26-1.31 5.11 0 2.32.83 4.28 2.48 5.89 1.65 1.61 4.04 2.53 7.16 2.77l5.96.57c3.5.28 6.49 1.05 8.97 2.3 2.48 1.25 4.38 2.88 5.71 4.89 1.32 2.01 1.99 4.36 1.99 7.06 0 3.03-.82 5.72-2.45 8.08-1.63 2.36-3.94 4.21-6.91 5.53-2.98 1.32-6.5 1.99-10.56 1.99l-.02-.02Zm43.75-1.21v-7.02h6.67v7.02h-6.67Zm29 0 19.07-51.76h9.64l19.71 51.76h-5.53l-18.37-48.36 2.91 1.49h-7.45l3.05-1.49-17.66 48.36h-5.39.02Zm10.21-16.45 1.77-4.89h24.04l1.84 4.89h-27.65Z" fill="#FFFFFF"></path></g><defs><clipPath id="svg-2125182910_2600_a"><path fill="#fff" d="M0 0h931.02v194.67H0z"></path></clipPath></defs></svg>
