<?xml version="1.0" encoding="UTF-8"?>
<svg id="Layer_2" data-name="Layer 2" xmlns="http://www.w3.org/2000/svg" viewBox="0 0 976.59 145">
  <defs>
    <style>
      .cls-1 {
        fill: #fff;
      }
    </style>
  </defs>
  <g id="Layer_1-2" data-name="Layer 1">
    <g id="logo-4pcapital">
      <g>
        <rect class="cls-1" x="269.23" y="122.77" width="4.55" height="21.84"/>
        <path class="cls-1" d="M313.19,135.41l-15.59-13.06v22.26h4.57v-12.55l15.58,12.93v-22.23h-4.56v12.64Z"/>
        <path class="cls-1" d="M354.37,135.58l-6.65-12.81h-5.23l11.7,22.23,11.14-22.23h-4.7l-6.26,12.81Z"/>
        <path class="cls-1" d="M402.35,144.61v-4.11h-9.02v-5.44h8.23v-4.11h-8.23v-4.08h7.08v-4.11h-11.65v21.84h13.59Z"/>
        <path class="cls-1" d="M430.27,134.94c2.12.23,3.3,1.32,3.3,3.08,0,1.4-1.18,2.61-2.68,2.61-1.3,0-2.33-.32-3.32-1.58l-3.77,2.75c2.08,2.28,4.59,3.2,7.08,3.2,3.85,0,7.41-3.05,7.41-7.31s-3.09-6.74-6.82-6.98c-2.33-.15-3.06-1.05-3.06-2.05,0-1.2.82-1.93,2.03-1.93.76,0,1.73.47,2.31,1.09l3.6-2.61c-1.68-1.99-3.74-2.81-5.91-2.81-3.03,0-6.44,2.61-6.44,6.3,0,3.43,2.47,5.8,6.26,6.24h0Z"/>
        <path class="cls-1" d="M467.03,144.61v-17.74h5.76v-4.11h-15.73v4.11h5.41v17.74h4.55Z"/>
        <path class="cls-1" d="M510.15,131.22l-11.68-8.83v22.22h4.55v-13.16l7.12,5.13,7.11-5.13v13.16h4.55v-22.22l-11.66,8.83Z"/>
        <path class="cls-1" d="M562.88,144.61v-4.11h-9.02v-5.44h8.24v-4.11h-8.24v-4.08h7.09v-4.11h-11.64v21.84h13.58Z"/>
        <path class="cls-1" d="M603.54,135.41l-15.59-13.06v22.26h4.56v-12.55l15.58,12.93v-22.23h-4.55v12.64Z"/>
        <path class="cls-1" d="M642.79,144.61v-17.74h5.76v-4.11h-15.73v4.11h5.41v17.74h4.55Z"/>
        <path class="cls-1" d="M702.54,122.77v21.84h4.55v-9.55h10.06v9.55h4.55v-21.84h-4.55v8.19h-10.06v-8.19h-4.55Z"/>
        <path class="cls-1" d="M760.55,145c6.26,0,11.33-5.07,11.33-11.33s-5.06-11.28-11.35-11.28-11.33,5.04-11.33,11.28,5.06,11.33,11.35,11.33h0ZM760.52,126.73c3.7,0,6.67,3.1,6.67,6.94s-2.94,6.96-6.65,6.96-6.67-3.05-6.67-6.96,2.91-6.94,6.65-6.94h0Z"/>
        <path class="cls-1" d="M797.63,122.77v21.84h13.38v-4.11h-8.83v-17.74h-4.55Z"/>
        <path class="cls-1" d="M834.91,122.77v21.84h8.9c6.3,0,11.44-4.66,11.44-10.94s-5.15-10.9-11.47-10.9h-8.88ZM839.46,140.51v-13.63h4.32c3.83,0,6.79,2.85,6.79,6.8s-2.97,6.84-6.77,6.84h-4.35Z"/>
        <rect class="cls-1" x="877.68" y="122.77" width="4.57" height="21.84"/>
        <path class="cls-1" d="M921.65,135.41l-15.58-13.06v22.26h4.57v-12.55l15.57,12.93v-22.23h-4.55v12.64Z"/>
        <path class="cls-1" d="M976.59,132.68h-11.23v4.05h5.93c-.97,2.55-3.42,3.9-6.05,3.9-3.68,0-6.59-3.08-6.59-6.92s2.9-6.98,6.59-6.98c2.59,0,4.84,1.46,5.99,3.61l3.65-2.64c-1.96-3.19-5.58-5.3-9.68-5.3-6.23,0-11.23,5.07-11.23,11.32s5,11.29,11.26,11.29,11.35-5.19,11.35-11.64v-.68Z"/>
        <path class="cls-1" d="M264.45,1.09l-55.32,64.97,1.5,8.85h58.6v21.52h7.38v-21.52h12.01v-7.35h-12.01V1.09h-12.16ZM269.23,67.56h-52.18l52.18-61.02v61.02Z"/>
        <path class="cls-1" d="M345.29,7.9c31.83,0,31.83,48.9,0,48.9h-34.55V7.9h34.55ZM345.29,63.47c41.53,0,41.53-62.38,0-62.38h-41.92v95.34h7.37v-32.96h34.55Z"/>
        <path class="cls-1" d="M504.28,78.58c-8.18,8.04-19.12,12.13-29.91,12.13-27.59,0-41.79-19.33-42.06-41.68-.14-22.88,14.21-42.5,42.06-42.5,10.79,0,21.58,3.95,29.78,12.13l5.05-4.36c-9.56-9.53-22.26-14.3-34.83-14.3-32.77,0-49.44,23.84-49.17,49.31.13,25.73,16.94,48.21,49.17,48.21,12.57,0,25.27-4.77,34.83-14.3l-4.92-4.64Z"/>
        <path class="cls-1" d="M606.18,96.43L563.28,1.09h-8.05l-42.88,95.34h7.92l10.38-23.43h57.09l10.53,23.43h7.92ZM533.51,66.19l25.67-58.01,25.67,58.01h-51.35Z"/>
        <path class="cls-1" d="M658.89,7.9c31.83,0,31.83,48.9,0,48.9h-34.55V7.9h34.55ZM658.89,63.47c41.53,0,41.53-62.38,0-62.38h-41.92v95.34h7.38v-32.96h34.55Z"/>
        <rect class="cls-1" x="706.43" y="1.09" width="7.24" height="95.34"/>
        <path class="cls-1" d="M761.88,96.43h7.38V7.77h34.55V1.23h-76.49v6.54h34.56v88.66Z"/>
        <path class="cls-1" d="M901.74,96.43L858.85,1.09h-8.05l-42.9,95.34h7.93l10.38-23.43h57.09l10.51,23.43h7.93ZM829.08,66.19l25.67-58.01,25.67,58.01h-51.35Z"/>
        <path class="cls-1" d="M915.39,1.09v95.34h61.19v-6.94h-53.82V1.09h-7.38Z"/>
        <path class="cls-1" d="M118.2,145c1.16,0,2.14-.98,2.14-2.15v-29.66c0-1.36-.98-2.34-2.14-2.34h-59.88L107.24,3.15c.39-.58.19-1.37-.2-2.14-.4-.59-1.18-.98-1.77-.98h-13.1c-.98,0-1.77.58-2.15,1.36l-49.9,109.45h-8.02L81.02,3.15c.39-.58.39-1.37,0-2.14-.6-.59-1.17-.98-1.96-.98h-13.1c-.78,0-1.56.58-1.96,1.36L13.71,110.85H5.69L54.8,3.15c.39-1.17,0-2.34-1.18-2.92-1.17-.58-2.35,0-2.93,1.17L.22,112.21c-.4.59-.2,1.36.2,2.15.39.59.98.98,1.75.98h13.12c.78,0,1.56-.59,1.95-1.37L67.32,4.52h8.22L26.63,112.21c-.4.59-.4,1.36,0,2.15.39.59,1.18.98,1.95.98h12.91c.98,0,1.77-.59,2.15-1.37L93.54,4.52h8.21l-48.9,107.7c-.21.59-.21,1.57.19,2.15.39.59,1.18.98,1.76.98h61.05v27.51c0,1.17.97,2.15,2.35,2.15h0Z"/>
        <rect class="cls-1" x="155.86" width="3.65" height="145"/>
      </g>
    </g>
  </g>
</svg>